# xmcd
#
# Track frame offsets:
#	150
#	13602
#	25420
#	38385
#	52408
#	68819
#	85527
#	100474
#	114677
#	128090
#	141133
#	161816
#	173124
#	186554
#	194644
#	209212
#	223500
#	239608
#	255633
#	268441
#	281591
#	294772
#	304772
#	317009
#
# Disc length: 4372 seconds
#
# Revision: 0
# Processed by: cddbd v1.5.2PL0 Copyright (c) Steve Scherf et al.
# Submitted via: EasyCDDAExtractor 8.0.1.1
#
DISCID=7a111218
DTITLE=Arturo Zambo Cavero - Zambo cavero
DYEAR=2004
DGENRE=Criollo
TTITLE0=Cada domingo a las 12 despues de la misa
TTITLE1=Nuestro secreto
TTITLE2=frente a frente
TTITLE3=Y se llama Peru
TTITLE4=Mueve tucuc 
TTITLE5=Cariño bonito
TTITLE6=Olga
TTITLE7=La comadre cocoliche
TTITLE8=Rebeca
TTITLE9=Negrito de la Huayrona
TTITLE10=Ruperta
TTITLE11=Sincera confesion
TTITLE12=El alcatraz
TTITLE13=Mi amiga la tristeza
TTITLE14=Cariño bueno
TTITLE15=Dijiste adios
TTITLE16=Negro ñato
TTITLE17=Contigo Peru
TTITLE18=Te sigo
TTITLE19=Sigue tu rumbo
TTITLE20=El cachombo
TTITLE21=El tiempo que te quede libre
TTITLE22=Tu perdicion
TTITLE23=Se acabo y punto
EXTD=
EXTT0=
EXTT1=
EXTT2=
EXTT3=
EXTT4=
EXTT5=
EXTT6=
EXTT7=
EXTT8=
EXTT9=
EXTT10=
EXTT11=
EXTT12=
EXTT13=
EXTT14=
EXTT15=
EXTT16=
EXTT17=
EXTT18=
EXTT19=
EXTT20=
EXTT21=
EXTT22=
EXTT23=
PLAYORDER=
